# xmcd
#
# Track frame offsets:
#	150
#	5318
#	24512
#	47081
#	66200
#	91618
#	112312
#	137056
#	156775
#	174993
#	202887
#
# Disc length: 2851 seconds
#
# Revision: 0
# Processed by: cddbd v1.5.1PL0 Copyright (c) Steve Scherf et al.
# Submitted via: EasyCDDAExtractor 4.6.9.1
#
DISCID=860b210b
DTITLE=Depeche Mode - Live In Silence - CD1
DYEAR=1984
DGENRE=live
TTITLE0=Master And Servant
TTITLE1=Something To Do
TTITLE2=Two Minute Warning
TTITLE3=Puppets
TTITLE4=If You Want
TTITLE5=People Are People
TTITLE6=Leave In Silence
TTITLE7=New Life
TTITLE8=Shame
TTITLE9=Somebody
TTITLE10=Ice Machine
EXTD=
EXTT0=
EXTT1=
EXTT2=
EXTT3=
EXTT4=
EXTT5=
EXTT6=
EXTT7=
EXTT8=
EXTT9=
EXTT10=
PLAYORDER=
